<?xml version="1.0" encoding="UTF-8" standalone="no"?>
<!-- Created with Inkscape (http://www.inkscape.org/) -->

<svg
   width="19.448999mm"
   height="19.448999mm"
   viewBox="0 0 19.449 19.449"
   version="1.1"
   id="svg1"
   inkscape:version="1.3.2 (1:1.3.2+202311252150+091e20ef0f)"
   sodipodi:docname="favicon.svg"
   inkscape:export-filename="../../../../../../Downloads/Rastergrafik.png"
   inkscape:export-xdpi="652.98993"
   inkscape:export-ydpi="652.98993"
   xmlns:inkscape="http://www.inkscape.org/namespaces/inkscape"
   xmlns:sodipodi="http://sodipodi.sourceforge.net/DTD/sodipodi-0.dtd"
   xmlns="http://www.w3.org/2000/svg"
   xmlns:svg="http://www.w3.org/2000/svg">
  <sodipodi:namedview
     id="namedview1"
     pagecolor="#ffffff"
     bordercolor="#111111"
     borderopacity="1"
     inkscape:showpageshadow="0"
     inkscape:pageopacity="0"
     inkscape:pagecheckerboard="1"
     inkscape:deskcolor="#d1d1d1"
     inkscape:document-units="mm"
     inkscape:zoom="11.802334"
     inkscape:cx="52.065971"
     inkscape:cy="25.799981"
     inkscape:window-width="2560"
     inkscape:window-height="1371"
     inkscape:window-x="0"
     inkscape:window-y="0"
     inkscape:window-maximized="1"
     inkscape:current-layer="layer1" />
  <defs
     id="defs1">
    <linearGradient
       x1="0"
       y1="0"
       x2="1"
       y2="0"
       gradientUnits="userSpaceOnUse"
       gradientTransform="matrix(14.858989,0,0,14.858989,71.627397,91.753042)"
       spreadMethod="pad"
       id="linearGradient6">
      <stop
         style="stop-opacity:1;stop-color:#284a7e icc-color(Japan-Color-2001-Coated, 0.90596008, 0.76011658, 0.31039429, 0.00057983);"
         offset="0"
         id="stop1" />
      <stop
         style="stop-opacity:1;stop-color:#284a7e icc-color(Japan-Color-2001-Coated, 0.90596008, 0.76011658, 0.31039429, 0.00057983);"
         offset="0.124798"
         id="stop2" />
      <stop
         style="stop-opacity:1;stop-color:#193a6b icc-color(Japan-Color-2001-Coated, 0.96806335, 0.86628723, 0.39767456, 0.04751587);"
         offset="0.496792"
         id="stop3" />
      <stop
         style="stop-opacity:1;stop-color:#122f58 icc-color(Japan-Color-2001-Coated, 0.99874878, 0.92607117, 0.48532104, 0.15591431);"
         offset="0.70983413"
         id="stop4" />
      <stop
         style="stop-opacity:1;stop-color:#122f58 icc-color(Japan-Color-2001-Coated, 0.99874878, 0.92607117, 0.48532104, 0.15591431);"
         offset="0.901604"
         id="stop5" />
      <stop
         style="stop-opacity:1;stop-color:#122f58 icc-color(Japan-Color-2001-Coated, 0.99874878, 0.92607117, 0.48532104, 0.15591431);"
         offset="1"
         id="stop6" />
    </linearGradient>
  </defs>
  <g
     inkscape:label="Ebene 1"
     inkscape:groupmode="layer"
     id="layer1"
     transform="translate(-69.320834,-82.02083)">
    <rect
       style="display:none;opacity:1;fill:#ffffff;fill-opacity:1;stroke:#ffffff;stroke-width:3.1042;stroke-linecap:round;stroke-linejoin:round;stroke-dasharray:none;stroke-opacity:1;paint-order:normal"
       id="rect8"
       width="16.262375"
       height="16.247074"
       x="70.907738"
       y="83.640648"
       transform="matrix(0.99999996,-2.9513013e-4,2.2095109e-4,0.99999998,0,0)" />
    <path
       id="path6"
       d="m 77.252171,82.421068 c -0.838282,0.399777 -1.443849,1.028211 -1.826293,1.860222 v 0 c -0.466163,1.014567 -0.711045,2.094779 -0.863359,3.196751 v 0 c -0.115066,0.834961 -0.219805,1.671765 -0.327864,2.499351 v 0 c -0.248939,0.08814 -0.473168,0.167435 -0.704774,0.24857 v 0 c -0.608518,3.730772 -1.309606,7.422083 -1.902634,11.170558 v 0 c 0.38355,-0.11912 0.693343,-0.20911 0.998708,-0.31164 v 0 c 2.779639,-0.93085 5.598369,-1.710118 8.523316,-2.012164 v 0 c 1.794576,-0.185138 3.588784,-0.236401 5.33726,0.820579 v 0 C 86.307663,99.44889 86.194442,99.109596 86.038809,98.791322 v 0 c -0.497141,-1.01678 -1.307761,-1.60944 -2.433705,-1.784988 v 0 c -1.175363,-0.182924 -2.352201,-0.09736 -3.503591,0.0922 v 0 c -1.709753,0.281764 -3.398115,0.691868 -5.098649,1.032638 v 0 c -0.222386,0.04463 -0.44809,0.195463 -0.746448,0.05495 v 0 c 0.0402,-0.295407 0.07929,-0.582703 0.116171,-0.851557 v 0 c 0.141989,-0.04794 0.216855,-0.07671 0.293564,-0.09847 v 0 c 2.141248,-0.598924 4.306467,-1.083526 6.528113,-1.245428 v 0 c 1.049233,-0.07671 2.103261,-0.04205 3.114877,0.316429 v 0 c 0.381339,0.135719 0.754933,0.292827 1.172043,0.455836 v 0 c -0.140881,-0.657205 -0.440345,-1.167624 -0.853769,-1.62604 v 0 C 83.961732,94.399663 83.069976,94.237758 82.154618,94.164 v 0 c -1.259819,-0.101052 -2.501935,0.126498 -3.739624,0.299833 v 0 c -1.055504,0.147519 -2.092567,0.425963 -3.138112,0.644293 v 0 c -0.151207,0.03136 -0.304628,0.04794 -0.539921,0.08446 v 0 c 0.0579,-0.379125 0.104739,-0.684859 0.159689,-1.04444 v 0 c 1.740364,-0.281762 3.421719,-0.639496 5.121144,-0.80398 v 0 c 1.540844,-0.148995 3.1359,-0.339664 4.619209,0.683384 v 0 c -0.116171,-0.308316 -0.18108,-0.519638 -0.274017,-0.718051 v 0 C 84.015209,92.56563 83.508847,91.955637 82.681631,91.769393 v 0 C 82.136177,91.646951 81.556055,91.607489 80.996588,91.63515 v 0 c -1.430571,0.07007 -2.853399,0.231605 -4.257787,0.534758 v 0 c -0.480913,0.103631 -0.975841,0.138668 -1.503224,0.210216 v 0 c 0.01955,-0.247096 0.02766,-0.427439 0.05089,-0.605568 v 0 c 0.0099,-0.07597 0.05163,-0.148258 0.08888,-0.248939 v 0 c 0.373962,-0.06933 0.744604,-0.151578 1.118936,-0.205053 v 0 c 1.118199,-0.160428 2.234554,-0.349253 3.358284,-0.449936 v 0 c 0.922736,-0.08261 1.859855,-0.125022 2.774845,0.111009 v 0 c 0.33487,0.0863 0.659045,0.213904 1.01641,0.332657 v 0 c -0.279549,-1.133319 -1.082056,-1.804903 -2.224965,-2.022125 v 0 c -0.976579,-0.185875 -1.929925,-0.04463 -2.889172,0.07339 v 0 c -0.911667,0.112482 -1.820758,0.246724 -2.764515,0.376173 v 0 c -0.03836,-0.715839 -0.02397,-1.374146 0.0911,-2.031715 v 0 c 0.164115,-0.932693 0.309423,-1.868336 0.73096,-2.732801 v 0 c 0.296884,-0.608519 0.736491,-1.066935 1.37894,-1.288216 v 0 c 1.115985,-0.384288 2.249674,0.192883 2.687807,1.332472 v 0 c 0.330444,0.860409 0.476858,1.748475 0.45768,2.667155 v 0 c -0.0051,0.233818 0.0099,0.468006 0.01549,0.686703 v 0 h 1.347223 v -1.115615 c -0.339669,-0.06011 -0.632127,-0.111746 -0.963677,-0.170385 v 0 -0.650561 c 0.31311,-0.03283 0.585284,-0.06197 0.893968,-0.09441 v 0 c -0.06712,-0.303891 -0.130184,-0.573851 -0.186243,-0.845288 v 0 c -0.188825,-0.910938 -0.593766,-1.706807 -1.238796,-2.381708 v 0 c -0.63322,-0.661997 -1.487359,-1.00793 -2.349242,-1.00793 v 0 c -0.468374,0 -0.939331,0.102158 -1.378202,0.311636"
       style="display:inline;fill:url(#linearGradient6);stroke:none;stroke-width:0.368799" />
  </g>
</svg>
