<svg xmlns="http://www.w3.org/2000/svg" width="328.556" height="69.729" viewBox="0 0 86.931 18.449"><defs><clipPath id="c" clipPathUnits="userSpaceOnUse"><path d="M-74.073 45.072h271.831v-77.465h-271.83Z"/></clipPath><clipPath id="d" clipPathUnits="userSpaceOnUse"><path d="M-106.31 29.832h271.83v-77.465h-271.83Z"/></clipPath><clipPath id="e" clipPathUnits="userSpaceOnUse"><path d="M-115.636 35.472h271.831v-77.465h-271.83Z"/></clipPath><clipPath id="f" clipPathUnits="userSpaceOnUse"><path d="M-139.99 46.976h271.831v-77.465h-271.83Z"/></clipPath><clipPath id="g" clipPathUnits="userSpaceOnUse"><path d="M-156.604 29.832h271.831v-77.465h-271.83Z"/></clipPath><clipPath id="h" clipPathUnits="userSpaceOnUse"><path d="M-162.857 34.767h271.83v-77.465h-271.83Z"/></clipPath><clipPath id="i" clipPathUnits="userSpaceOnUse"><path d="M-178.288 34.638h271.83v-77.465h-271.83Z"/></clipPath><clipPath id="j" clipPathUnits="userSpaceOnUse"><path d="M0 77.465h271.831V0H0Z"/></clipPath><clipPath id="k" clipPathUnits="userSpaceOnUse"><path d="M-209.245 36.79h271.83v-77.464h-271.83Z"/></clipPath><clipPath id="l" clipPathUnits="userSpaceOnUse"><path d="M-230.364 46.338h271.83v-77.465h-271.83Z"/></clipPath><clipPath id="m" clipPathUnits="userSpaceOnUse"><path d="M-243.671 39.47h271.83v-77.465h-271.83Z"/></clipPath><clipPath id="n" clipPathUnits="userSpaceOnUse"><path d="M-251.653 32.578h271.83v-77.465h-271.83Z"/></clipPath><clipPath id="o" clipPathUnits="userSpaceOnUse"><path d="M-66.17 52.626h271.831V-24.84h-271.83Z"/></clipPath><linearGradient id="a" x1="0" x2="1" y1="0" y2="0" gradientTransform="translate(12.436 51.558) scale(14.21349)" gradientUnits="userSpaceOnUse" spreadMethod="pad"><stop offset="0" style="stop-color:#fff;stop-opacity:1"/><stop offset=".125" style="stop-color:#eee;stop-opacity:1"/><stop offset=".497" style="stop-color:#ddd;stop-opacity:1"/><stop offset=".71" style="stop-color:#c7cbcc;stop-opacity:1"/><stop offset=".902" style="stop-color:#b5babb;stop-opacity:1"/><stop offset="1" style="stop-color:#eaeaea;stop-opacity:1"/></linearGradient><linearGradient id="b" x1="0" x2="1" y1="0" y2="0" gradientTransform="translate(14.375 44.68) scale(12.33007)" gradientUnits="userSpaceOnUse" spreadMethod="pad"><stop offset="0" style="stop-color:#eee;stop-opacity:1"/><stop offset=".259" style="stop-color:#ddd;stop-opacity:1"/><stop offset=".707" style="stop-color:#ccc;stop-opacity:1"/><stop offset="1" style="stop-color:#aaa;stop-opacity:1"/></linearGradient></defs><path d="M17.816 42.631a3.563 3.563 0 0 0-1.747 1.78c-.446.97-.68 2.004-.826 3.058-.11.798-.21 1.599-.313 2.39l-.675.238c-.582 3.569-1.252 7.1-1.82 10.686.367-.114.664-.2.956-.299 2.659-.89 5.355-1.635 8.153-1.924 1.716-.177 3.433-.226 5.105.785-.17-.425-.28-.75-.428-1.054-.476-.973-1.251-1.54-2.328-1.708-1.124-.175-2.25-.093-3.351.088-1.636.27-3.251.662-4.878.988-.212.043-.428.187-.714.053l.111-.815c.136-.046.208-.073.281-.094 2.049-.573 4.12-1.037 6.245-1.191 1.003-.074 2.012-.04 2.98.302.364.13.722.28 1.12.436-.134-.628-.42-1.117-.816-1.555-.637-.705-1.49-.86-2.366-.93-1.205-.097-2.393.12-3.577.286-1.01.141-2.001.407-3.001.616-.145.03-.292.046-.517.081l.153-.999c1.665-.27 3.273-.612 4.898-.769 1.474-.143 3-.325 4.419.654-.111-.295-.173-.497-.262-.687-.333-.712-.817-1.295-1.608-1.473a6.071 6.071 0 0 0-1.612-.129c-1.369.067-2.73.222-4.073.512-.46.099-.934.132-1.438.2.019-.236.026-.408.049-.578.01-.073.05-.142.085-.239.357-.066.712-.145 1.07-.196 1.07-.153 2.138-.334 3.212-.43.883-.08 1.78-.12 2.655.106.32.083.63.205.972.318-.267-1.084-1.035-1.726-2.128-1.934-.934-.178-1.846-.043-2.764.07-.872.108-1.742.236-2.644.36-.037-.685-.023-1.314.087-1.943.157-.893.296-1.788.699-2.614.284-.583.704-1.021 1.319-1.233 1.067-.367 2.152.185 2.571 1.275.316.823.456 1.672.438 2.551-.005.224.01.448.015.657h1.288V47.26l-.921-.163v-.622c.299-.032.56-.06.855-.09-.065-.291-.125-.55-.179-.81a4.566 4.566 0 0 0-1.184-2.278 3.108 3.108 0 0 0-2.248-.964c-.448 0-.898.098-1.318.298" style="fill:url(#a);stroke:none;stroke-width:.352778" transform="translate(-12.435 -42.333)"/><path d="M17.816 42.631a3.563 3.563 0 0 0-1.747 1.78c-.446.97-.68 2.004-.826 3.058-.065.477-.128.954-.19 1.43l1.329-.247a6.97 6.97 0 0 1 .099-.961c.157-.893.296-1.788.699-2.614.284-.583.704-1.021 1.319-1.233 1.067-.367 2.152.185 2.571 1.275.316.823.456 1.672.438 2.551-.005.224.01.448.015.657h1.288V47.26l-.921-.163v-.622c.299-.032.56-.06.855-.09-.065-.291-.125-.55-.179-.81a4.566 4.566 0 0 0-1.184-2.278 3.107 3.107 0 0 0-2.247-.964c-.449 0-.9.098-1.319.298" style="fill:url(#b);stroke:none;stroke-width:.352778" transform="translate(-12.435 -42.333)"/><path d="M0 0c-1.19 1.373-1.794 3.093-1.794 5.113 0 2.039.604 3.769 1.794 5.142 1.208 1.396 2.724 2.103 4.505 2.103 1.79 0 3.308-.708 4.513-2.103 1.184-1.374 1.785-3.103 1.785-5.142 0-2.03-.601-3.753-1.786-5.12-1.204-1.391-2.723-2.096-4.512-2.096C2.725-2.103 1.21-1.396 0 0m5.498-5.285c1.114 0 2.249.247 3.374.731a9.767 9.767 0 0 1 3.044 2.075A10.307 10.307 0 0 1 14.252.973c.551 1.321.831 2.714.831 4.14 0 1.806-.36 3.491-1.07 5.006a10.488 10.488 0 0 1-3.057 3.836 10.372 10.372 0 0 1-3.039 1.667 10.428 10.428 0 0 1-3.412.565c-1.652 0-3.226-.371-4.677-1.101a10.546 10.546 0 0 1-3.708-3.121 10.593 10.593 0 0 1-1.633-3.138 11.505 11.505 0 0 1-.56-3.564c0-1.581.305-3.068.908-4.421.603-1.353 1.513-2.58 2.703-3.647 0 0 .314-.25.431-.313.075-.04.321-.12.321-.12.347-.251.187-.126 3.447-1.199.146-.049.505-.15.62-.193l.523-.264.111-.011c1.191-.252 2.034-.38 2.507-.38" clip-path="url(#c)" style="fill:#eaeaea;fill-opacity:1;fill-rule:nonzero;stroke:none" transform="matrix(.35278 0 0 -.35278 20.935 11.296)"/><path d="M0 0h-3.269v-9.494c0-1.346-.295-2.391-.876-3.105-.59-.724-1.453-1.091-2.565-1.091-1.154 0-2.03.394-2.604 1.172-.564.763-.849 1.917-.849 3.429V0h-3.652v-9.518c0-2.383.613-4.256 1.821-5.565 1.204-1.306 2.919-1.969 5.098-1.969 2.156 0 3.861.669 5.07 1.985C-.614-13.746 0-11.871 0-9.494z" clip-path="url(#d)" style="fill:#eaeaea;fill-opacity:1;fill-rule:nonzero;stroke:none" transform="matrix(.35278 0 0 -.35278 32.308 5.92)"/><path d="m0 0 2.416-5.834H-2.48Zm3.524-8.418 1.067-2.448h3.845L.201 6.163H.143l-8.418-17.029h3.681l1.09 2.448z" clip-path="url(#e)" style="fill:#eaeaea;fill-opacity:1;fill-rule:nonzero;stroke:none" transform="matrix(.35278 0 0 -.35278 35.598 7.909)"/><path d="M0 0v17.145h-3.385V7.668L-14.081 17.69h-.163V.638h3.385v9.383L-.127 0Z" clip-path="url(#f)" style="fill:#eaeaea;fill-opacity:1;fill-rule:nonzero;stroke:none" transform="matrix(.35278 0 0 -.35278 44.19 11.967)"/><path d="M0 0h-14.372v-3.199h5.349v-13.307h3.698v13.307H0Z" clip-path="url(#g)" style="fill:#eaeaea;fill-opacity:1;fill-rule:nonzero;stroke:none" transform="matrix(.35278 0 0 -.35278 50.05 5.92)"/><path d="M0 0h-1.636c.046 1.683.609 3.064 1.688 4.145 1.079 1.08 2.411 1.621 3.997 1.621 1.57 0 2.84-.507 3.811-1.52.971-1.014 1.456-2.21 1.456-3.587 0-.967-.231-1.874-.694-2.722-.463-.847-1.362-1.994-2.696-3.441l-4.251-4.578h7.873v-1.647h-11.59l6.52 7.046C5.801-3.266 6.661-2.215 7.06-1.53c.398.685.597 1.406.597 2.165 0 .96-.358 1.786-1.073 2.479-.716.693-1.592 1.04-2.628 1.04-1.09 0-1.997-.364-2.72-1.091C.512 2.336.1 1.315 0 0" clip-path="url(#h)" style="fill:#b5936b;fill-opacity:1;fill-rule:nonzero;stroke:none" transform="matrix(.35278 0 0 -.35278 52.256 7.66)"/><path d="M0 0a9.45 9.45 0 0 1-.627-3.447c0-1.416.286-2.742.849-3.941a8.424 8.424 0 0 1 2.443-3.058 8.26 8.26 0 0 1 2.465-1.343c1.715-.584 3.682-.597 5.415-.08a8.451 8.451 0 0 1 2.253 1.05l.23 4.029c-.761-.607-1.532-1.076-2.296-1.397a6.707 6.707 0 0 0-2.607-.545c-1.478 0-2.695.498-3.619 1.482-.921.981-1.389 2.276-1.389 3.85 0 1.572.471 2.881 1.399 3.889.932 1.011 2.146 1.524 3.609 1.524.84 0 1.653-.188 2.418-.561.678-.33 1.355-.822 2.017-1.464l.387 3.877a8.855 8.855 0 0 1-2.34 1.122 9.072 9.072 0 0 1-2.656.388 8.694 8.694 0 0 1-3.339-.655A8.37 8.37 0 0 1 0 0" clip-path="url(#i)" style="fill:#eaeaea;fill-opacity:1;fill-rule:nonzero;stroke:none" transform="matrix(.35278 0 0 -.35278 57.7 7.615)"/><path d="M194.309 31.127h3.698v16.506h-3.698z" clip-path="url(#j)" style="fill:#eaeaea;fill-opacity:1;fill-rule:nonzero;stroke:none" transform="matrix(.35278 0 0 -.35278 -5.196 22.723)"/><path d="M0 0c-.558-.409-1.37-.616-2.414-.616h-.888v4.805h.703c1.196 0 2.048-.184 2.606-.561.57-.385.858-.995.858-1.813C.865 1.031.574.42 0 0m4.227 1.966c0 .737-.168 1.445-.499 2.105a4.574 4.574 0 0 1-1.409 1.654 5.531 5.531 0 0 1-2.021.949c-.767.189-1.82.285-3.129.285h-4.17V-9.547h3.699v6.162l.171-.014c.09-.007.188-.013.294-.017.107-.003.267-.006.481-.006 2.026 0 3.649.492 4.825 1.461C3.635-.999 4.227.322 4.227 1.966" clip-path="url(#k)" style="fill:#eaeaea;fill-opacity:1;fill-rule:nonzero;stroke:none" transform="matrix(.35278 0 0 -.35278 68.621 8.374)"/><path d="M0 0v16.506h-3.629v-6.171h-6.801v6.171h-3.651V0h3.651v7.054h6.801V0Z" clip-path="url(#l)" style="fill:#eaeaea;fill-opacity:1;fill-rule:nonzero;stroke:none" transform="matrix(.35278 0 0 -.35278 76.071 11.742)"/><path d="M0 0v3.13h-5.534v3.355H.928v3.153H-9.116V-6.868H1.021v3.222h-6.555V0Z" clip-path="url(#m)" style="fill:#eaeaea;fill-opacity:1;fill-rule:nonzero;stroke:none" transform="matrix(.35278 0 0 -.35278 80.766 9.32)"/><path d="M0 0h.819c1.213 0 2.07-.186 2.62-.568.56-.389.845-1.02.845-1.875 0-.814-.291-1.45-.863-1.889-.559-.43-1.372-.648-2.416-.648H0Zm5.3-13.76h4.193L4.43-6.623l.177.078c.981.434 1.741 1.044 2.259 1.811.517.767.779 1.675.779 2.697 0 .705-.167 1.385-.498 2.021a4.558 4.558 0 0 1-1.408 1.609 5.512 5.512 0 0 1-1.969.886c-.747.177-1.818.268-3.183.268h-4.169V-13.76H0v6.602h.81z" clip-path="url(#n)" style="fill:#eaeaea;fill-opacity:1;fill-rule:nonzero;stroke:none" transform="matrix(.35278 0 0 -.35278 83.582 6.888)"/><path d="M0 0c.666.222 2.887 4.22 5.997 4.554 3.11.333 5.886.555 9.44-.778 3.554-1.333 6.553-1.967 9.662-1.372 3.11.595 4.221 2.404 4.221 2.404S27.551.199 20.879-.246c-4.442-.296-6.034 2.29-13.364 3.097C3.761 3.264 0 0 0 0" clip-path="url(#o)" style="fill:#eaeaea;fill-opacity:1;fill-rule:nonzero;stroke:none" transform="matrix(.35278 0 0 -.35278 18.147 13.96)"/></svg>