<svg xmlns="http://www.w3.org/2000/svg" width="53.721" height="69.729" viewBox="0 0 14.214 18.449"><defs><linearGradient id="a" x1="0" x2="1" y1="0" y2="0" gradientTransform="matrix(14.21349 0 0 14.21349 106.475 72.331)" gradientUnits="userSpaceOnUse" spreadMethod="pad"><stop offset="0" style="stop-color:#fff;stop-opacity:1"/><stop offset=".125" style="stop-color:#eee;stop-opacity:1"/><stop offset=".497" style="stop-color:#ddd;stop-opacity:1"/><stop offset=".71" style="stop-color:#c7cbcc;stop-opacity:1"/><stop offset=".902" style="stop-color:#b5babb;stop-opacity:1"/><stop offset="1" style="stop-color:#c0c4c5;stop-opacity:1"/></linearGradient></defs><path d="M111.856 63.405a3.563 3.563 0 0 0-1.747 1.78c-.446.97-.68 2.003-.826 3.057-.11.799-.21 1.6-.314 2.39l-.674.239c-.582 3.568-1.253 7.1-1.82 10.685.367-.114.663-.2.955-.298 2.66-.89 5.356-1.636 8.154-1.925 1.716-.177 3.432-.226 5.105.785-.171-.425-.28-.75-.428-1.054-.476-.973-1.251-1.54-2.328-1.707-1.125-.175-2.25-.094-3.352.088-1.635.27-3.25.662-4.877.987-.213.043-.429.187-.714.053l.111-.815c.136-.045.208-.073.281-.094 2.048-.573 4.12-1.036 6.245-1.191 1.003-.073 2.011-.04 2.98.303.364.13.721.28 1.12.436-.135-.629-.421-1.117-.816-1.556-.637-.705-1.49-.86-2.366-.93-1.205-.097-2.393.12-3.577.286-1.01.142-2.002.408-3.002.617-.144.03-.291.046-.516.08l.153-.999c1.664-.269 3.273-.611 4.898-.769 1.474-.142 3-.324 4.419.654-.111-.295-.173-.497-.262-.687-.333-.711-.817-1.295-1.609-1.473a6.071 6.071 0 0 0-1.612-.128c-1.368.067-2.729.221-4.072.511-.46.1-.934.133-1.438.201.018-.236.026-.409.048-.579.01-.073.05-.142.085-.238.358-.066.713-.145 1.07-.196 1.07-.154 2.138-.334 3.213-.43.883-.08 1.78-.12 2.654.106.32.082.63.204.973.318-.268-1.084-1.035-1.727-2.129-1.935-.934-.177-1.846-.042-2.763.07-.872.108-1.742.237-2.645.36-.036-.684-.023-1.314.087-1.943.157-.892.296-1.787.7-2.614.284-.582.704-1.02 1.319-1.232 1.067-.368 2.152.184 2.57 1.274.317.823.457 1.673.438 2.552-.005.223.01.447.015.656h1.289v-1.067l-.922-.163v-.622c.3-.031.56-.06.855-.09-.064-.291-.124-.55-.178-.809a4.566 4.566 0 0 0-1.185-2.278 3.108 3.108 0 0 0-2.247-.964c-.448 0-.899.097-1.318.298" style="fill:url(#a);stroke:none;stroke-width:.352778" transform="translate(-106.475 -63.107)"/></svg>